PathFileType	4	(X/Y/Z)	C:/Users/opensim2020/Desktop/walking_exp_matlab/subject01_walking11_straight_04.trc	
DataRate	CameraRate	NumFrames	NumMarkers	Units	OrigDataRate	OrigDataStartFrame	OrigNumFrames	
100.00	100.00	4	44	mm	100.00	3974	278	
Frame#	Time	LFHD			RFHD			LBHD			RBHD			C7			T10			CLAV			STRN			RBAK			LSHO			LUPA			LELB			LFRM			LWRA			LWRB			LFIN			RSHO			RUPA			RELB			RFRM			RWRA			RWRB			RFIN			LASI			RASI			LPSI			RPSI			LTHI			LKNE			LTIB			LANK			LHEE			LTOE			RTHI			RKNE			RTIB			RANK			RHEE			RTOE			*39			*40			*41			*42			*43			
		X1	Y1	Z1	X2	Y2	Z2	X3	Y3	Z3	X4	Y4	Z4	X5	Y5	Z5	X6	Y6	Z6	X7	Y7	Z7	X8	Y8	Z8	X9	Y9	Z9	X10	Y10	Z10	X11	Y11	Z11	X12	Y12	Z12	X13	Y13	Z13	X14	Y14	Z14	X15	Y15	Z15	X16	Y16	Z16	X17	Y17	Z17	X18	Y18	Z18	X19	Y19	Z19	X20	Y20	Z20	X21	Y21	Z21	X22	Y22	Z22	X23	Y23	Z23	X24	Y24	Z24	X25	Y25	Z25	X26	Y26	Z26	X27	Y27	Z27	X28	Y28	Z28	X29	Y29	Z29	X30	Y30	Z30	X31	Y31	Z31	X32	Y32	Z32	X33	Y33	Z33	X34	Y34	Z34	X35	Y35	Z35	X36	Y36	Z36	X37	Y37	Z37	X38	Y38	Z38	X39	Y39	Z39	X40	Y40	Z40	X41	Y41	Z41	X42	Y42	Z42	X43	Y43	Z43	X44	Y44	Z44	

105	1.040	-971.81525	272.88968	1662.97668	-1083.05408	243.64839	1666.20532	-996.74683	390.20642	1629.94495	-1114.80981	363.11584	1633.25305	-1023.74969	436.75763	1430.54871	-1035.98608	476.85034	1137.76587	-1034.78174	295.20276	1359.73132	-1031.51563	254.24290	1204.40771	-1094.48401	501.07019	1234.73718	-869.84430	343.17538	1394.66724	-784.19452	353.80978	1209.77942	-785.40118	345.67838	1056.10327	-759.91071	271.00128	968.55139	-772.13641	151.31508	897.47046	-754.77740	200.97980	868.53394	-738.47424	129.63747	825.97070	-1178.96570	375.14877	1389.33826	-1270.94458	456.33350	1193.98364	-1275.68481	460.90500	1069.82837	-1310.77673	444.61603	951.96582	-1303.19702	369.82452	829.84814	-1336.84192	417.56070	834.36206	-1338.07153	386.37561	752.73126	-932.28760	312.13568	926.47650	-1149.40466	306.79852	932.66681	-992.89813	496.39307	943.68896	-1138.27002	489.89719	943.12683	-891.40686	390.58099	597.04675	-910.16290	425.39630	464.52078	-910.01630	515.31085	295.89337	-970.95020	589.65088	90.42459	-1024.61023	638.84802	71.17258	-968.72516	449.85089	35.90094	-1220.58496	287.69733	607.42328	-1190.35046	226.07932	464.62778	-1205.79321	223.05762	291.12314	-1165.81384	174.76749	86.29919	-1115.32483	205.28865	31.80179	-1169.48132	31.58939	92.64639	-1061.97144	254.82185	1701.22974	-3101.94580	1973.03857	1023.56537	-3140.67383	2012.46790	1022.12567						 
106	1.050	-973.28406	266.25867	1662.44373	-1084.38806	236.74284	1665.62732	-998.42212	383.45776	1629.45410	-1116.44617	356.17014	1632.65674	-1025.38965	429.90778	1429.87000	-1037.41687	469.54510	1137.05347	-1036.16284	288.25586	1359.27942	-1032.62610	247.12111	1203.96851	-1095.94226	493.75974	1233.83435	-871.34766	336.55124	1394.25391	-785.51947	347.12442	1209.46094	-786.38000	338.99225	1055.79187	-760.75452	264.17169	968.51086	-772.70386	144.18315	897.78528	-755.73169	193.90826	868.70117	-739.01819	122.40618	826.42413	-1180.49524	368.03833	1388.62512	-1272.56030	449.05234	1193.26147	-1276.90771	453.76520	1069.10071	-1312.14832	437.70456	951.29828	-1304.23926	363.30664	828.91406	-1337.99683	410.99817	833.50751	-1339.12488	380.09720	751.80634	-932.77399	304.96933	926.16174	-1149.99902	298.94202	931.99799	-994.16187	488.94980	943.18640	-1139.44275	482.18359	942.32251	-891.73737	385.10321	596.92877	-910.32031	420.68076	464.55527	-910.05920	512.40936	296.77203	-970.79810	588.69922	91.84489	-1024.32422	638.26959	73.29644	-968.73828	449.65005	35.88366	-1220.35852	280.24142	606.31378	-1190.47119	218.70979	463.92636	-1205.92114	214.80925	290.36349	-1166.49939	166.57660	85.68950	-1116.12805	197.14586	30.94535	-1169.34473	23.33841	91.90739	-1063.47107	247.93329	1700.73120	-3102.24268	1972.99048	1024.05603	-3140.64551	2012.47949	1021.98431						 
107	1.060	-974.90546	259.56851	1661.96021	-1086.00806	229.91234	1665.06506	-1000.22260	376.76834	1628.91504	-1118.19226	349.26901	1632.07739	-1027.16211	423.02954	1429.17493	-1038.87158	462.15854	1136.25854	-1037.61877	281.27344	1358.72388	-1033.84888	239.83078	1203.52600	-1097.49475	486.41833	1232.86865	-872.92212	329.91840	1393.84692	-786.93359	340.70401	1209.20996	-787.30084	332.74811	1055.47986	-761.69659	257.27081	968.35333	-773.39679	137.14516	898.01910	-756.27856	186.78447	868.72009	-739.60107	115.23573	826.74579	-1182.03064	360.91092	1387.90955	-1273.90491	441.76157	1192.37292	-1278.16541	446.52954	1068.29089	-1313.16248	430.70633	950.33136	-1305.31848	356.62952	827.84113	-1339.00159	404.24548	832.54022	-1340.14551	373.66898	750.78741	-933.35651	297.55423	925.80804	-1150.70300	290.88043	931.18787	-995.40375	481.37924	942.68793	-1140.61340	474.26721	941.59882	-892.13928	379.44684	596.73553	-910.49023	415.63351	464.43936	-909.95013	509.42477	297.59741	-970.55237	587.91406	93.40024	-1024.01941	637.64252	75.43224	-968.65350	449.55383	35.97528	-1220.57581	272.39749	605.51910	-1190.60742	211.25027	463.18103	-1206.67896	207.48492	289.46878	-1166.98987	159.54765	84.64703	-1116.96021	190.60722	30.14675	-1169.19153	16.25988	90.55849	-1065.08167	241.13824	1700.11560	-3102.00317	1973.12488	1023.38159	-3140.61914	2012.56873	1022.07507						 
108	1.070	-976.63116	252.90164	1661.48230	-1087.56104	223.07951	1664.50488	-1002.08490	370.11374	1628.37427	-1120.00647	342.34525	1631.43933	-1029.01282	416.11090	1428.40198	-1040.43872	454.64130	1135.38281	-1039.19507	274.27158	1358.22070	-1035.15723	232.49416	1203.09155	-1099.21497	479.02213	1231.89624	-874.59424	323.20853	1393.40173	-788.19818	333.65863	1208.93823	-788.45837	326.14313	1055.20313	-762.64038	250.51707	968.24463	-774.17584	130.24448	898.13348	-757.22058	179.86740	868.87616	-740.20386	108.26071	827.03595	-1183.86792	353.71851	1387.16284	-1275.21411	434.52884	1191.44189	-1279.50183	439.19125	1067.44165	-1314.52942	423.62643	949.55389	-1306.46777	349.79373	826.75104	-1340.23254	397.40540	831.62500	-1341.15259	367.02841	749.68384	-934.04236	289.93954	925.37170	-1151.37061	282.69797	930.36243	-996.67554	473.63171	942.19501	-1141.71973	466.18484	940.87195	-892.56482	373.43011	596.50275	-910.72083	410.26205	464.20599	-909.97522	505.88440	298.51169	-970.22736	586.86951	95.00981	-1023.75574	636.92371	77.62853	-968.53558	449.47095	35.89261	-1220.62805	264.38611	604.73505	-1190.72266	203.68193	462.13177	-1206.60022	200.56221	288.30453	-1167.04724	153.60661	83.22599	-1117.30505	185.56029	29.60741	-1169.05542	10.37842	88.33200	-1066.66296	234.36948	1699.61719	-3101.92310	1973.05737	1023.29193	-3140.67163	2012.52893	1022.13763						 
